# xmcd
#
# Track frame offsets:
#	150
#	13618
#	25192
#	40649
#	56080
#	71229
#	86672
#	101813
#	115485
#	132184
#	148607
#	164534
#	184728
#	198376
#	212261
#	226526
#	247272
#	260487
#	276361
#	292384
#
# Disc length: 4155 seconds
#
# Revision: 0
# Processed by: cddbd v1.5.1PL2 Copyright (c) Steve Scherf et al.
# Submitted via: EasyCDDAExtractor 4.6.9.1
#
DISCID=32103914
DTITLE=Emmylou Harris - Singin' With Emmylou Volume 2
DYEAR=2003
DGENRE=Country
TTITLE0=As Long As I Live -With Johnny Cash
TTITLE1=The Last Time (Geh Night Allein) - With Tom Astor
TTITLE2=My Baby's Gone - With The Kendalls
TTITLE3=High Lonesome - \With The Woody
TTITLE4=Greenville - With Lucinda Williams
TTITLE5=I'm Going Crazy In 3/4 Time - With Billy Joe Shaver
TTITLE6=Sweet Believer - With T. Graham Brown
TTITLE7=Dreamin' My Dreams - With Mike Auldridge
TTITLE8=Only A Woman's Heart - With Mary Black
TTITLE9=Appalachian Rain - With Matraca Berg
TTITLE10=Too Many Years Too Late - With Bobby Cryner
TTITLE11=Beyond The Blue - With Patty Griffin
TTITLE12=I'll Take My Time Going Home - With Barry and Holly Tashian
TTITLE13=Flower In The Desert - With Jim and Jesse McReynolds
TTITLE14=Kentucky Waltz - With Bill Monroe
TTITLE15=Billy Tyler - With Albert Lee
TTITLE16=Beneath A Painted Sky - With Tammy Wynette
TTITLE17=When You Get A Little Lonely - With Nicolette Larson
TTITLE18=Stormy Weather - With Tanya Tucker
TTITLE19=Sweet Bed Of Feeling - With Priscilla Coolidge-Jones
EXTD=
EXTT0=with Johnny Cash
EXTT1=with Tom Astor
EXTT2=with the Kendalls
EXTT3=with the Woodys
EXTT4=with Lucinda Williams
EXTT5=with Billy Joe Shaver
EXTT6=with T. Graham Brown
EXTT7=with Mike Auldridge
EXTT8=with Mary Black
EXTT9=with Matraca Berg
EXTT10=with Bobby Cryner
EXTT11=with Patty Griffin
EXTT12=with Barry and Holly Tashian
EXTT13=with Jim and Jesse McReynolds
EXTT14=with Bill Monroe
EXTT15=with Albert Lee
EXTT16=with Tammy Wynette
EXTT17=with Nicolette Larson
EXTT18=with Tanya Tucker
EXTT19=with Priscilla Coolidge-Jones
PLAYORDER=
